HIERARCHY
ROOT hips
{
  OFFSET 0 10.6860622 2.3727825e-15
  CHANNELS 6 Xposition Yposition Zposition Yrotation Xrotation Zrotation
  JOINT leftUpperLeg
  {
    OFFSET 0.6642549969 -0.9402397400000004 0
    CHANNELS 3 Yrotation Xrotation Zrotation
    JOINT leftLowerLeg
    {
      OFFSET 0 -3.997221335632195 0
      CHANNELS 3 Yrotation Xrotation Zrotation
      JOINT leftFoot
      {
        OFFSET -0.13777839790000004 -4.6145792000000005 -0.22186036399999998
        CHANNELS 3 Yrotation Xrotation Zrotation
        JOINT leftToes
        {
          OFFSET -0.03777410834999995 -0.9130806927000008 0.85230013
          CHANNELS 3 Yrotation Xrotation Zrotation
          End Site
          {
            OFFSET -0.03777410834999995 -0.9130806927000008 0.85230013
          }
        }
      }
    }
  }
  JOINT rightUpperLeg
  {
    OFFSET -0.6642778626 -0.9402397400000004 0
    CHANNELS 3 Yrotation Xrotation Zrotation
    JOINT rightLowerLeg
    {
      OFFSET 0 -3.997221452859387 0
      CHANNELS 3 Yrotation Xrotation Zrotation
      JOINT rightFoot
      {
        OFFSET 0.1377926176 -4.6145792000000005 -0.22185782299999995
        CHANNELS 3 Yrotation Xrotation Zrotation
        JOINT rightToes
        {
          OFFSET 0.037780746850000047 -0.9130806927000008 0.85230167
          CHANNELS 3 Yrotation Xrotation Zrotation
          End Site
          {
            OFFSET 0.037780746850000047 -0.9130806927000008 0.85230167
          }
        }
      }
    }
  }
  JOINT spine
  {
    OFFSET 0 0.13988381660000015 0
    CHANNELS 3 Yrotation Xrotation Zrotation
    JOINT chest
    {
      OFFSET 0 0.6191039003973773 0
      CHANNELS 3 Yrotation Xrotation Zrotation
      JOINT upperChest
      {
        OFFSET 0 0.9855186130586943 0
        CHANNELS 3 Yrotation Xrotation Zrotation
        JOINT leftShoulder
        {
          OFFSET 0.1807663869 1.5087829790000005 0
          CHANNELS 3 Yrotation Xrotation Zrotation
          JOINT leftUpperArm
          {
            OFFSET 0.5985063006419806 0 0
            CHANNELS 3 Yrotation Xrotation Zrotation
            JOINT leftLowerArm
            {
              OFFSET 2.2993332369501065 0 0
              CHANNELS 3 Yrotation Xrotation Zrotation
              JOINT leftHand
              {
                OFFSET 2.395047042602395 0 0
                CHANNELS 3 Yrotation Xrotation Zrotation
                JOINT leftIndexProximal
                {
                  OFFSET 0.5766295810000004 0.04556643899499946 0.17265095988184
                  CHANNELS 3 Yrotation Xrotation Zrotation
                  JOINT leftIndexIntermediate
                  {
                    OFFSET 0.2957229000000008 -0.019352197700001517 -0.007932640616999987
                    CHANNELS 3 Yrotation Xrotation Zrotation
                    JOINT leftIndexDistal
                    {
                      OFFSET 0.19008243099999922 -0.012484908149998475 -0.002786250786000012
                      CHANNELS 3 Yrotation Xrotation Zrotation
                      End Site
                      {
                        OFFSET 0.19008243099999922 -0.012484908149998475 -0.002786250786000012
                      }
                    }
                  }
                }
                JOINT leftMiddleProximal
                {
                  OFFSET 0.5834975091000001 0.0524350405149987 0.02204081888183999
                  CHANNELS 3 Yrotation Xrotation Zrotation
                  JOINT leftMiddleIntermediate
                  {
                    OFFSET 0.33880573540000003 -0.019871473270000717 -0.00000971183179999946
                    CHANNELS 3 Yrotation Xrotation Zrotation
                    JOINT leftMiddleDistal
                    {
                      OFFSET 0.20676022730000088 -0.012221336379999448 0.0001471936708000235
                      CHANNELS 3 Yrotation Xrotation Zrotation
                      End Site
                      {
                        OFFSET 0.20676022730000088 -0.012221336379999448 0.0001471936708000235
                      }
                    }
                  }
                }
                JOINT leftLittleProximal
                {
                  OFFSET 0.5344154683999995 -0.012880921405001189 -0.24414037221816004
                  CHANNELS 3 Yrotation Xrotation Zrotation
                  JOINT leftLittleIntermediate
                  {
                    OFFSET 0.21758961730000093 -0.011650919939999227 0.011893592810000034
                    CHANNELS 3 Yrotation Xrotation Zrotation
                    JOINT leftLittleDistal
                    {
                      OFFSET 0.1475273964999999 -0.008152365682999818 0.006001092492999946
                      CHANNELS 3 Yrotation Xrotation Zrotation
                      End Site
                      {
                        OFFSET 0.1475273964999999 -0.008152365682999818 0.006001092492999946
                      }
                    }
                  }
                }
                JOINT leftRingProximal
                {
                  OFFSET 0.5799399463000003 0.026911854694997794 -0.12150566991816003
                  CHANNELS 3 Yrotation Xrotation Zrotation
                  JOINT leftRingIntermediate
                  {
                    OFFSET 0.26167887460000006 -0.013480186499999602 0.010996293000000053
                    CHANNELS 3 Yrotation Xrotation Zrotation
                    JOINT leftRingDistal
                    {
                      OFFSET 0.17667108799999987 -0.008990287899999228 0.0055541023999999065
                      CHANNELS 3 Yrotation Xrotation Zrotation
                      End Site
                      {
                        OFFSET 0.17667108799999987 -0.008990287899999228 0.0055541023999999065
                      }
                    }
                  }
                }
                JOINT leftThumbProximal
                {
                  OFFSET 0.11018806699999972 -0.09448718900500053 0.17047963138184
                  CHANNELS 3 Yrotation Xrotation Zrotation
                  JOINT leftThumbIntermediate
                  {
                    OFFSET 0.31062601459999983 -0.08126270900000132 0.15443142000000007
                    CHANNELS 3 Yrotation Xrotation Zrotation
                    JOINT leftThumbDistal
                    {
                      OFFSET 0.21627175790000086 -0.08833193599999878 0.018771167799999988
                      CHANNELS 3 Yrotation Xrotation Zrotation
                      End Site
                      {
                        OFFSET 0.21627175790000086 -0.08833193599999878 0.018771167799999988
                      }
                    }
                  }
                }
              }
            }
          }
        }
        JOINT neck
        {
          OFFSET 0 1.5463305265074576 0
          CHANNELS 3 Yrotation Xrotation Zrotation
          JOINT head
          {
            OFFSET 0 0.8456443600000344 0
            CHANNELS 3 Yrotation Xrotation Zrotation
            JOINT leftEye
            {
              OFFSET 0.30408573140000006 0.5104519199999995 0.1276382305
              CHANNELS 3 Yrotation Xrotation Zrotation
              End Site
              {
                OFFSET 0.30408573140000006 0.5104519199999995 0.1276382305
              }
            }
            JOINT rightEye
            {
              OFFSET -0.30409491089999996 0.5104519199999995 0.1276379445
              CHANNELS 3 Yrotation Xrotation Zrotation
              End Site
              {
                OFFSET -0.30409491089999996 0.5104519199999995 0.1276379445
              }
            }
            JOINT jaw
            {
              OFFSET -3.155239131000001e-7 -0.11984121820000082 0.60178107
              CHANNELS 3 Yrotation Xrotation Zrotation
              End Site
              {
                OFFSET -3.155239131000001e-7 -0.11984121820000082 0.60178107
              }
            }
          }
        }
        JOINT rightShoulder
        {
          OFFSET -0.1807303465 1.5087829790000005 0
          CHANNELS 3 Yrotation Xrotation Zrotation
          JOINT rightUpperArm
          {
            OFFSET -0.5985063796536958 0 0
            CHANNELS 3 Yrotation Xrotation Zrotation
            JOINT rightLowerArm
            {
              OFFSET -2.2993322059002854 0 0
              CHANNELS 3 Yrotation Xrotation Zrotation
              JOINT rightHand
              {
                OFFSET -2.395045314457259 0 0
                CHANNELS 3 Yrotation Xrotation Zrotation
                JOINT rightIndexProximal
                {
                  OFFSET -0.5764487688300002 0.0441371204405987 0.17361932004999997
                  CHANNELS 3 Yrotation Xrotation Zrotation
                  JOINT rightIndexIntermediate
                  {
                    OFFSET -0.29573011380000047 -0.01934826376999843 -0.007698921482999974
                    CHANNELS 3 Yrotation Xrotation Zrotation
                    JOINT rightIndexDistal
                    {
                      OFFSET -0.19008373999999884 -0.012503266380000655 -0.0026365778999999897
                      CHANNELS 3 Yrotation Xrotation Zrotation
                      End Site
                      {
                        OFFSET -0.19008373999999884 -0.012503266380000655 -0.0026365778999999897
                      }
                    }
                  }
                }
                JOINT rightMiddleProximal
                {
                  OFFSET -0.5834852037300005 0.05211639405060153 0.02307162440000001
                  CHANNELS 3 Yrotation Xrotation Zrotation
                  JOINT rightMiddleIntermediate
                  {
                    OFFSET -0.33880114510000003 -0.019952774050000954 0.0002455003561999819
                    CHANNELS 3 Yrotation Xrotation Zrotation
                    JOINT rightMiddleDistal
                    {
                      OFFSET -0.20675694929999955 -0.012273788999999091 0.00030209124000002766
                      CHANNELS 3 Yrotation Xrotation Zrotation
                      End Site
                      {
                        OFFSET -0.20675694929999955 -0.012273788999999091 0.00030209124000002766
                      }
                    }
                  }
                }
                JOINT rightLittleProximal
                {
                  OFFSET -0.5346811737299992 -0.011214256288399227 -0.24363941305000003
                  CHANNELS 3 Yrotation Xrotation Zrotation
                  JOINT rightLittleIntermediate
                  {
                    OFFSET -0.21757715980000092 -0.011771559690000988 0.01201554387
                    CHANNELS 3 Yrotation Xrotation Zrotation
                    JOINT rightLittleDistal
                    {
                      OFFSET -0.1475201849000004 -0.00822055339600003 0.006082065407000015
                      CHANNELS 3 Yrotation Xrotation Zrotation
                      End Site
                      {
                        OFFSET -0.1475201849000004 -0.00822055339600003 0.006082065407000015
                      }
                    }
                  }
                }
                JOINT rightRingProximal
                {
                  OFFSET -0.5800810755299999 0.027657985680600072 -0.12066365025000003
                  CHANNELS 3 Yrotation Xrotation Zrotation
                  JOINT rightRingIntermediate
                  {
                    OFFSET -0.26166445029999974 -0.013623118409999302 0.011164098990000045
                    CHANNELS 3 Yrotation Xrotation Zrotation
                    JOINT rightRingDistal
                    {
                      OFFSET -0.17666387530000027 -0.009072900100000503 0.005668185599999959
                      CHANNELS 3 Yrotation Xrotation Zrotation
                      End Site
                      {
                        OFFSET -0.17666387530000027 -0.009072900100000503 0.005668185599999959
                      }
                    }
                  }
                }
                JOINT rightThumbProximal
                {
                  OFFSET -0.10997596379000074 -0.09577489355940072 0.16989765924999997
                  CHANNELS 3 Yrotation Xrotation Zrotation
                  JOINT rightThumbIntermediate
                  {
                    OFFSET -0.31036620999999986 -0.08229339117999834 0.15440884469999996
                    CHANNELS 3 Yrotation Xrotation Zrotation
                    JOINT rightThumbDistal
                    {
                      OFFSET -0.21631306399999906 -0.08825326400000111 0.018656797720000014
                      CHANNELS 3 Yrotation Xrotation Zrotation
                      End Site
                      {
                        OFFSET -0.21631306399999906 -0.08825326400000111 0.018656797720000014
                      }
                    }
                  }
                }
              }
            }
          }
        }
      }
    }
  }
}
MOTION
Frames: 4
Frame Time: 0.03333333333333333
-0.3268777132034302 -0.06954227202148466 -0.1910686045885086 -6.291156070371911 6.138338055594516 0.36838261620550755 15.751263895165913 -14.183838292106955 -3.806994341077905 0.08003116345235417 8.10859056413582 -0.23751718790575277 0.7288174310483793 0.24579821131655447 1.8793935294099562 -0.025392610316149516 0.0029904501697047077 0.06294179288402756 -2.6532165867219755 -12.425855731967797 -1.0463665204202253 0.07158023636359984 10.980417350015736 0.4453666738930425 -15.965658723459232 -4.310189354879893 2.106538614149743 -0.18123963682709585 -0.020517888705250505 0.4491419789954899 0.5136264920261342 0.07759760277915582 0.281768784417706 2.064368142745964 0.29472068066853685 1.149588643333567 0 0 0 7.31080736462805 12.574356038805945 -4.905235204911291 -37.06725589952506 0.5076497264590853 -69.72166690894723 -28.704003838153277 0.13274252407208725 0.33643876631965086 12.383269655829034 -19.288228318163675 12.40730566156898 1.891377483026906 2.062133501895943 -37.128510795419466 0.6021188613754748 0.10308724031760656 -38.630844734006914 -1.281281483810888e-10 1.793762613445802e-24 1.6042536111691759e-12 -0.630410654257622 -0.3022062693599979 -38.282650071881584 -3.7815838461986124 -2.091662091897198 -51.91932838262269 1.139979627027678e-10 6.3611093629270335e-15 -1.43444452663829e-12 -0.30809822883312876 -9.853839918428893 -44.91299455437123 -9.944888938141153 -5.1229371062236435 -71.50161433667898 3.602720390997899e-7 0.0000023831028064000286 -3.7770343797589374e-7 0.931776485309985 -9.158567786057167 -42.63567205173234 -5.615046433648096 -3.2154330552803416 -64.61047942008827 0 0 0 16.746972971836996 -3.985129414381005 0.016004599816823104 6.702232130341672 2.452024540033772 2.0648113283894722 0.00000872918203834652 -0.000008082026994866872 -0.00000387469440536408 0.19696395632552213 -19.527403102423378 -0.4373080826515862 3.645666901606466 13.356569442378982 -0.5924568032165264 0 0 0 0 0 0 0 0 0 8.549341198248685 11.428991641471349 0.10807983443829054 20.68614996068057 -5.0376558686286135 70.42295367527836 32.25483241610403 0.1788145093450753 -0.3573547515947717 -14.907321534607986 5.3087183425968965 -13.348885797252635 -10.766348895587694 -11.256588987921981 26.77017664173313 0.35201358201406896 14.51749011608597 48.505802665906295 3.933694872703174e-10 3.1805546814635168e-15 -4.874754472204794e-12 -4.392316270607061 -3.4798890880649935 38.04391249146705 3.0856049395620504 -1.9352437857336633 56.560070000176644 1.215836204053751e-9 -3.180554491887685e-15 -1.6036856771618462e-11 -1.496289502942155 -6.336163553455067 46.895667352416226 12.886509234743995 -6.831298710506438 68.49061664471614 1.6628260911929426e-9 -3.1805543023118527e-15 -2.179830267765673e-11 -0.9287882754605191 -3.1796313089144954 41.875234322656176 6.249102321562932 -3.0610471031499964 55.9809576395929 -4.3803240153668535e-10 2.0219334966109398e-23 5.2894833502657416e-12 -2.250139228252839 1.5293310651077099 0.23921994928301266 -8.585385110849735 3.1912101479254775 -2.596266734956605 -0.0000027056926768557717 0.00001179538982501321 -0.0000028422047300056803
-0.3329579830169678 -0.07140098326416044 -0.19480599462985992 -6.277039997720429 6.145073287192988 0.38445437288850365 15.795855943471029 -14.302529440204474 -3.7969923126975296 0.07871140114411448 8.28115264046223 -0.24390485731325373 0.6806364296631441 0.19312118969086783 1.8521718007745442 -0.025588144476068577 0.0030122603761495574 0.06342674268450266 -2.6565979927454135 -12.552016634954976 -1.0232095942715704 0.07212175024982959 11.183112530241193 0.4537214951082982 -15.973230692714473 -4.403622296719136 2.0853291706890817 -0.18136744877773583 -0.020525626029415964 0.4494501284677664 0.5126399039177701 0.09292341703254053 0.28614227764683875 2.0616316232279677 0.35567651468191724 1.1731046274005814 0 0 0 7.304187008308862 12.57299667272164 -4.902065999691805 -37.06854316401809 0.4748717773703942 -69.73263041746621 -28.750108506297476 0.13215659366135127 0.33742604787741415 12.432751529283198 -19.303244485782038 12.451184347779781 1.9225677179825944 2.0612462836428596 -37.06982411006359 0.6021650160399974 0.10314109484559998 -38.654925976858905 -1.281281483810888e-10 1.793762613445802e-24 1.6042536111691759e-12 -0.5915198083798182 -0.3007270326812165 -38.30741324709398 -3.7823282184124882 -2.088313712130463 -51.844918706952946 1.139979627027678e-10 6.3611093629270335e-15 -1.43444452663829e-12 -0.2721476999267356 -9.809642375701166 -44.90660748434779 -9.945042516972359 -5.113928877890777 -71.39972404265013 3.602720390997899e-7 0.0000023831028064000286 -3.7770343797589374e-7 0.9697059653533604 -9.11325869143481 -42.66991355067878 -5.614389190105775 -3.2075486667657604 -64.48618997736881 0 0 0 16.674168954187483 -3.891978280854789 0.0036677763252211744 6.7251945021131725 2.4621128263042054 2.0701119378416313 0.00000872918203834652 -0.000008082026994866872 -0.00000387469440536408 0.20339446666676958 -19.483915927547404 -0.43754659386985584 3.6754732121829194 13.235457849782065 -0.6031638689505618 0 0 0 0 0 0 0 0 0 8.560129078234253 11.426763515638397 0.1000378102420035 20.683611186388216 -5.0232244417343574 70.35897755438714 32.26618233064728 0.17798899960893264 -0.3579088959382028 -14.896241356094821 5.264749360591563 -13.348071142650369 -10.766740611382081 -11.25628952920476 26.791186743718438 0.3516606462229532 14.517821723041532 48.52666363612364 3.933694872703174e-10 3.1805546814635168e-15 -4.874754472204794e-12 -4.39102917637528 -3.480871672776587 38.06474832319649 3.0864616492730126 -1.9365544360091673 56.58096379852773 1.215836204053751e-9 -3.180554491887685e-15 -1.6036856771618462e-11 -1.4936967218856627 -6.338936051115107 46.915991212068135 12.887903213331333 -6.834877536953548 68.51106793789317 1.6628260911929426e-9 -3.1805543023118527e-15 -2.179830267765673e-11 -0.9268835250928363 -3.1813224645848748 41.895904650935414 6.250512895256239 -3.063157656798612 56.00169031752019 -4.3803240153668535e-10 2.0219334966109398e-23 5.2894833502657416e-12 -2.2680426867321475 1.5402336104541279 0.23933524832754446 -8.604273960363201 3.200212462580929 -2.5988828802157573 -0.0000027056926768557717 0.00001179538982501321 -0.0000028422047300056803
-0.34476375579833984 -0.07422958128662138 -0.2022761106491089 -6.2440690303051705 6.1566092921633455 0.41953757269539305 15.987302319812159 -14.469965213742588 -3.8003333824460266 0.07701862980411182 8.506506699312736 -0.251661375616348 0.477426923414497 0.14738403884129292 1.8042115336582683 -0.026050893088580163 0.0030720560060370308 0.06458456289515295 -2.6645474979595116 -12.761250217205088 -0.9824412525517184 0.07321410118266514 11.507383543842623 0.4674343745200788 -15.992334882977016 -4.550516648275286 2.037795103382415 -0.1816520741526131 -0.020551404325598356 0.4501675966894382 0.5122895812400156 0.12204091185637406 0.2946039297224512 2.062909492708083 0.471386607882301 1.2203811087084837 0 0 0 7.294254695216417 12.570013790370659 -4.883477994818687 -37.06494892044692 0.4730569660310006 -69.75719146702822 -28.969385116251555 0.13177391528981758 0.3408135256028751 12.616604456204216 -19.41263822275776 12.574878108194266 1.985029296142408 2.0592606166574274 -36.9524152526037 0.6022452664606126 0.10331930037317588 -38.703158867442845 -1.281281483810888e-10 1.793762613445802e-24 1.6042536111691759e-12 -0.5137443128208133 -0.2976821141752596 -38.35693352687858 -3.7837928831093817 -2.0816075762797293 -51.69608944774936 1.139979627027678e-10 6.3611093629270335e-15 -1.43444452663829e-12 -0.20020325645754475 -9.721286599268469 -44.89372311092741 -9.945295879797722 -5.095908086848753 -71.19595882484735 3.602720390997899e-7 0.0000023831028064000286 -3.7770343797589374e-7 1.0454673566797694 -9.022525448258552 -42.73825923205694 -5.613059506298056 -3.1917544189875993 -64.2376479670508 0 0 0 16.50356919513868 -3.7152992888510794 -0.0044824674772005035 6.771094171658062 2.4823248795346804 2.0807610764654956 0.00000872918203834652 -0.000008082026994866872 -0.00000387469440536408 0.21746790104207886 -19.385584750905362 -0.44622521669968 3.7385150717117277 12.9736034312862 -0.6211879921995449 0 0 0 0 0 0 0 0 0 8.58216331850465 11.422525072852407 0.09460589405030145 20.70529929800741 -4.981919908979027 70.2210977377714 32.28773356284154 0.1768840644698898 -0.3588374891421406 -14.92640273385863 5.133266423359808 -13.377633669778106 -10.76853580087701 -11.254859269918907 26.887181813449985 0.35009901211868705 14.519248696941412 48.62202962561685 3.933694872703174e-10 3.1805546814635168e-15 -4.874754472204794e-12 -4.385215356159484 -3.485244882152945 38.15980622683217 3.090404629251902 -1.9425165514276597 56.67626531231905 1.215836204053751e-9 -3.180554491887685e-15 -1.6036856771618462e-11 -1.4818786663254955 -6.351552284935297 47.00883385626319 12.894288754198367 -6.851248731096387 68.60439291079368 1.6628260911929426e-9 -3.1805543023118527e-15 -2.179830267765673e-11 -0.9182440544001714 -3.1891102391406925 41.99045171281225 6.256946070202454 -3.072684483590878 56.096364298544984 -4.3803240153668535e-10 2.0219334966109398e-23 5.2894833502657416e-12 -2.3497225770810264 1.5900564454617152 0.24000219884214546 -8.690552787229404 3.2413529238636944 -2.610837726195064 -0.0000027056926768557717 0.00001179538982501321 -0.0000028422047300056803
-0.35630112886428833 -0.0758498739501956 -0.20995032787322998 -6.202156757941501 6.156476618954489 0.4543388916009542 16.27108362803222 -14.5453927003893 -3.819759426636184 0.07633109757316923 8.581767123170978 -0.2533704817317839 0.1722922843658674 0.1776055866946575 1.761533148237885 -0.026397551838087657 0.0031092057901854347 0.06545185629929125 -2.6730915910272257 -12.902225906586477 -0.9425579939288514 0.07411371942233123 11.719748098469754 0.4768552034962845 -16.020885498522645 -4.642616171414478 1.9807048146949302 -0.1818730511806247 -0.020591883537705056 0.45074262235278023 0.5140124726963018 0.15103529426252488 0.30416236732181784 2.072731127006624 0.5864814997501847 1.272731432843957 0 0 0 7.287613241933669 12.566534971029036 -4.845655699477943 -37.058777022041305 0.5678251720906704 -69.7758757073851 -29.373800710731352 0.13228225880451203 0.3462900440693545 12.93144377175293 -19.65607284778587 12.728430426535288 2.047453870933288 2.057023353657278 -36.83501524628834 0.6023412574858911 0.10349411748206472 -38.75134805527339 -1.281281483810888e-10 1.793762613445802e-24 1.6042536111691759e-12 -0.4359734622791097 -0.2944783658324792 -38.40637623207642 -3.785272879784665 -2.074854053433406 -51.54723609469108 1.139979627027678e-10 6.3611093629270335e-15 -1.43444452663829e-12 -0.12821402920111302 -9.633000922156087 -44.88075218309178 -9.945515118086162 -5.077857372848463 -70.9922128390304 3.602720390997899e-7 0.0000023831028064000286 -3.7770343797589374e-7 1.12098045414799 -8.931638706962904 -42.806535644750255 -5.611679320676484 -3.1759178734199867 -63.98909509179226 0 0 0 16.334173106594616 -3.543414723026928 -0.03564961553941907 6.817003476759796 2.5025156635110135 2.0913994729254113 0.00000872918203834652 -0.000008082026994866872 -0.00000387469440536408 0.23557701331062247 -19.277829976973518 -0.46595021408089227 3.8213368674028763 12.708968158360632 -0.6464025956744675 0 0 0 0 0 0 0 0 0 8.60754496149135 11.418477445258388 0.11513587804630025 20.744529654661726 -4.9407203781449684 70.06785658133472 32.286310511336694 0.17619155737409833 -0.35925479147801265 -15.067715660241152 4.943875704319295 -13.461367833647351 -10.772113374258756 -11.252146758736298 27.073587950428987 0.34709123496280775 14.522178520163227 48.80712452168783 3.933694872703174e-10 3.1805546814635168e-15 -4.874754472204794e-12 -4.373984590522598 -3.493796339039325 38.34438873611709 3.098024274338316 -1.9541309588210634 56.86127888505605 1.215836204053751e-9 -3.180554491887685e-15 -1.6036856771618462e-11 -1.45894193558243 -6.376141364699576 47.189053162277276 12.906610804500694 -6.883046407252438 68.78560053395681 1.6628260911929426e-9 -3.1805543023118527e-15 -2.179830267765673e-11 -0.9014723265658057 -3.2042291224552066 42.17394255331139 6.2694158825911925 -3.0912726215002633 56.28017434108282 -4.3803240153668535e-10 2.0219334966109398e-23 5.2894833502657416e-12 -2.5082895175209665 1.686853666252291 0.24112809389102965 -8.858084626213504 3.321122642228711 -2.6341563157494523 -0.0000027056926768557717 0.00001179538982501321 -0.0000028422047300056803
